Coordinates
version=1
nRows=17
nColumns=36
inDegrees=yes

Units are S.I. units (second, meters, Newtons, ...)
If the header above contains a line with 'inDegrees', this indicates whether rotational values are in degrees (yes) or radians (no).

endheader
time	pelvis_tilt	pelvis_list	pelvis_rotation	pelvis_tx	pelvis_ty	pelvis_tz	hip_flexion_r	hip_adduction_r	hip_rotation_r	knee_angle_r	knee_angle_r_beta	ankle_angle_r	subtalar_angle_r	mtp_angle_r	hip_flexion_l	hip_adduction_l	hip_rotation_l	knee_angle_l	knee_angle_l_beta	ankle_angle_l	subtalar_angle_l	mtp_angle_l	lumbar_extension	lumbar_bending	lumbar_rotation	arm_flex_r	arm_add_r	arm_rot_r	elbow_flex_r	pro_sup_r	arm_flex_l	arm_add_l	arm_rot_l	elbow_flex_l	pro_sup_l
      3.81666670	    -12.53189750	      1.47368472	     -6.34968661	     -0.07509215	      1.36387403	     -0.12179638	     23.21814134	     -1.62645072	      1.57917998	     26.50767314	      0.46264617	     15.68264400	     -4.81893292	     -7.49999987	     23.89835674	     -2.15981495	     -0.59475105	     27.08351286	      0.47269647	     12.10263050	     -4.95381679	     -7.49999987	    -17.68362014	      1.77750498	     -2.99696827	    -25.02498117	    -20.46233883	     37.03856833	     25.42482259	     75.03905904	    -25.91857382	    -23.33237161	     27.77473261	     34.76918410	     78.48624778
      3.83333330	    -13.18687720	      1.42465515	     -6.54921659	     -0.05708386	      1.34998269	     -0.11118158	     24.90812328	     -1.50115950	      1.36947709	     29.06781577	      0.50732909	     17.19528379	     -3.81382314	     -7.49999987	     26.70014650	     -2.50255495	     -0.40927293	     31.28942362	      0.54610346	     13.53571745	     -4.85166194	     -7.49999987	    -18.70349418	      2.04295743	     -2.67894113	    -24.33922529	    -19.63297722	     36.51821326	     23.83334224	     74.09397139	    -26.04452309	    -22.55187168	     27.51835643	     33.59073650	     77.38927570
      3.85000000	    -13.79379089	      1.62601577	     -6.98034299	     -0.05647300	      1.34671432	     -0.11108793	     26.57746623	     -1.44401742	      1.85735929	     31.36858680	      0.54748512	     18.42977054	     -3.78804298	     -7.49999987	     29.21154634	     -2.57101130	     -0.22564094	     35.06782978	      0.61204909	     14.73678635	     -5.19977387	     -7.49999987	    -20.12672178	      1.93388015	     -2.26841292	    -22.80436440	    -19.64468417	     36.04516020	     24.54955918	     72.71670928	    -24.87783044	    -22.40343521	     27.10732959	     34.65491027	     75.75905565
      3.86666670	    -15.16864285	      1.86244090	     -7.30513726	     -0.05464924	      1.33522736	     -0.11093251	     29.50819599	     -1.57198675	      1.52930727	     34.65838101	      0.60490286	     20.18104760	     -1.96797459	     -7.49999987	     32.59311983	     -2.85943982	     -0.46070361	     39.04242237	      0.68141882	     16.95394281	     -3.52056359	     -7.49999987	    -20.71423566	      1.99580774	     -1.79730209	    -19.47202469	    -18.35974374	     33.18068222	     21.97906980	     70.48937772	    -21.42227150	    -20.37993346	     24.27385471	     31.26571793	     73.11608437
      3.88333330	    -15.97396753	      2.13401680	     -7.74619758	     -0.05357354	      1.32815983	     -0.11100019	     32.04131590	     -1.73094921	      1.33849990	     37.98259423	      0.66292133	     21.93176398	     -0.74235233	     -7.49999987	     35.21927652	     -2.86551665	     -0.37641625	     42.39359186	      0.73990776	     19.79614754	     -2.20804732	     -7.49999987	    -21.83028926	      1.88422648	     -1.26067288	    -15.44273904	    -17.22668266	     29.03851869	     20.66584521	     68.31753166	    -18.06117929	    -18.48413932	     19.94384893	     29.14114487	     70.76034599
      3.90000000	    -16.61710098	      2.42033788	     -8.06095215	     -0.05270089	      1.31636406	     -0.11090564	     34.44268986	     -1.94680287	      1.24981403	     41.35367071	      0.72175771	     24.23592321	      0.65502908	     -7.49999987	     38.09166489	     -2.87911278	     -0.47664882	     46.23542773	      0.80696044	     22.58080550	     -0.63792295	     -7.49999987	    -23.24567223	      1.65242600	     -0.78542991	    -11.10406171	    -16.32495228	     23.09364311	     20.77876455	     65.61315011	    -14.38273337	    -16.70657942	     14.16967058	     28.33734592	     67.81066414
      3.91666670	    -17.25709745	      2.80094144	     -8.26102408	     -0.05159059	      1.29910951	     -0.11090045	     37.11671164	     -2.22598115	      1.31625718	     45.15696113	      0.78813765	     26.93591859	      1.70923056	     -7.49999987	     40.90704841	     -2.91707733	     -0.77707341	     50.31157012	      0.87810255	     25.13101227	      0.93779458	     -7.49999987	    -24.83490779	      1.35578641	     -0.52756532	     -5.66477535	    -15.90088158	     17.05636585	     22.33609502	     64.19352897	    -10.09380039	    -15.34368446	      9.82632646	     28.02033080	     66.17137508
      3.93333330	    -17.82705644	      3.12462094	     -8.33181247	     -0.03317529	      1.28133216	     -0.10025936	     38.91773773	     -2.33494515	      1.47077824	     47.90596033	      0.83611674	     29.70047510	      2.64352984	     -7.49999987	     43.10783466	     -3.08597647	     -1.01952825	     54.17452283	      0.94552379	     27.24640852	      2.39017370	     -7.49999987	    -26.03015316	      0.85271705	     -0.69905424	     -0.75114151	    -15.61096501	     15.36636391	     25.16444165	     63.91471938	     -6.61343503	    -15.58430338	      8.81708304	     28.38556394	     65.85181751
      3.95000000	    -17.86949648	      3.26015918	     -8.51888039	     -0.01298224	      1.27345365	     -0.10414494	     39.46032974	     -2.13069343	      1.79527011	     49.54862454	      0.86478664	     32.25662197	      3.06725477	     -7.49999987	     43.95261046	     -3.18782051	     -1.12629132	     57.36676368	      1.00123891	     28.55487749	      3.28124176	     -7.49999987	    -27.05579978	      1.04382509	     -0.58876931	      4.34197945	    -15.37798936	     14.15898710	     27.22760995	     63.64252028	     -1.54748625	    -15.61497782	      8.20889092	     30.35916039	     65.73780751
      3.96666670	    -17.56735675	      3.22336213	     -8.56061092	     -0.00535207	      1.26878259	     -0.09932904	     39.19217049	     -1.91473466	      1.92898393	     50.90120361	      0.88839360	     34.76446846	      3.38015721	     -7.49999987	     43.86926471	     -3.49223152	     -1.23888727	     60.06069361	      1.04825685	     29.35362375	      4.88668954	     -7.49999987	    -28.66234861	      1.16036799	     -0.41929368	     11.02892023	    -14.93077859	     12.01704237	     28.41139147	     63.35079805	      4.61321625	    -15.14982443	      7.73685879	     31.22995982	     65.98092190
      3.98333330	    -17.45962579	      3.21208057	     -8.78873009	      0.01438769	      1.26128836	     -0.10328030	     38.82138856	     -1.57956192	      2.24455801	     51.98386373	      0.90728958	     36.66573519	      2.70093846	     -7.49999987	     43.45255951	     -3.47160421	     -1.04562166	     62.00682111	      1.08222319	     29.60562216	      5.30374412	     -7.49999987	    -29.04031961	      1.13270861	      0.48790310	     16.03254021	    -14.54534674	      8.45713569	     31.09128240	     63.78406641	     10.54270810	    -14.52807470	      7.65192647	     35.09972338	     68.80895403
      4.00000000	    -17.62161754	      3.14806710	     -9.22923330	      0.03202920	      1.24854173	     -0.09973129	     38.66108683	     -1.03041964	      2.51039557	     53.22644089	      0.92897664	     38.33715349	      2.15078388	     -7.49999987	     43.04594732	     -3.52273912	     -0.70516390	     63.60474576	      1.11011223	     30.13629065	      5.75505751	     -7.49999987	    -28.12498848	      1.01479567	      0.58076265	     20.57921921	    -14.56521899	      6.38781044	     37.21900236	     70.58609930	     13.55013676	    -13.71511667	      3.58998055	     40.65495726	     78.18630744
      4.01666670	    -17.83198403	      3.14256148	     -9.84161577	      0.04943882	      1.23777562	     -0.09630620	     38.02496159	     -0.60324526	      2.70899934	     53.74148150	      0.93796580	     39.29551423	      1.15135832	     -7.49999987	     41.94357676	     -3.33898736	     -0.27163051	     63.98926289	      1.11682332	     31.13249563	      6.18466864	     -7.49999987	    -25.86166250	      1.02105206	      0.60205320	     24.46158753	    -14.36234075	      7.21984633	     41.95411609	     71.14937598	     16.67348618	    -13.90616470	      5.05889254	     45.73622313	     78.66989048
      4.03333330	    -18.96193263	      3.23669400	    -10.19715211	      0.04129051	      1.23862812	     -0.10055081	     38.75086038	     -0.21976326	      2.91319358	     54.51715809	      0.95150391	     39.83377970	     -0.06648439	     -7.49999987	     42.45152104	     -3.32931224	     -0.04317554	     64.77443694	      1.13052720	     31.78058085	      6.47241137	     -7.49999987	    -22.62880262	      1.37586949	      0.58228697	     30.34878182	    -14.90103134	      7.49653207	     49.07547533	     72.16825801	     22.21590066	    -14.92269286	      7.48758875	     54.39127637	     79.59400488
      4.05000000	    -19.54418720	      3.30289869	    -10.46883325	      0.04057332	      1.25473562	     -0.09329453	     38.57786127	      0.10455159	      3.07992369	     53.93845222	      0.94140358	     39.70397664	     -1.27406462	     -7.49999987	     42.15657789	     -3.15432116	      0.28247178	     64.28764368	      1.12203105	     32.35635314	      6.46814710	     -7.49999987	    -20.41876841	      1.49851134	      1.75875053	     37.21943362	    -15.52783101	      7.90582978	     56.15837641	     83.03618256	     28.77553994	    -16.05845967	      9.99347187	     61.78579273	     88.31868028
      4.06666670	    -19.94445871	      3.34499206	    -10.69010768	      0.05987642	      1.25574226	     -0.08933517	     37.71254099	      0.53370103	      3.39253725	     52.70684099	      0.91990791	     39.30852130	     -2.39213383	     -7.49999987	     41.37407919	     -3.01651563	      0.58245087	     63.29613237	      1.10472591	     32.23067198	      6.32506931	     -7.49999987	    -18.19603187	      1.59815435	      1.75307052	     41.03605584	    -15.93225023	     10.13798151	     67.22724510	     88.00994831	     30.59477198	    -18.74820386	     11.14433819	     75.82173548	     91.68473774
      4.08333330	    -19.07654265	      2.91713461	    -10.68111403	      0.08605625	      1.26698444	     -0.08123008	     34.29426192	      1.15079860	      3.61917855	     50.37719232	      0.87924787	     38.34010921	     -3.95830466	     -7.49999987	     38.37418194	     -2.98892703	      1.18937737	     61.53216143	      1.07393881	     31.06297462	      5.98786630	     -7.49999987	    -17.61727431	      1.45075443	      2.73755964	     44.00773063	    -17.55822403	      9.76726321	     77.84915690	     91.54267112	     37.46922566	    -19.63111212	     12.65746805	     85.88847320	     97.21515763
